<?xml version="1.0" encoding="utf-8"?>
<!-- Generator: Adobe Illustrator 19.0.0, SVG Export Plug-In . SVG Version: 6.00 Build 0)  -->
<svg version="1.1" id="layer" xmlns="http://www.w3.org/2000/svg" xmlns:xlink="http://www.w3.org/1999/xlink" x="0px" y="0px"
	 viewBox="-153 -46 652 652" style="enable-background:new -153 -46 652 652;" xml:space="preserve">
<style type="text/css">
	.st0{fill:#072579;}
	.st1{fill:#FFFFFF;}
</style>
<g>
	<path class="st0" d="M392.8,275.5c0-138.1-111.9-250-250-250c-80.9,0-152.7,38.6-198.4,98.3v303.5c45.7,59.6,117.4,98.3,198.4,98.3
		C280.9,525.5,392.8,413.6,392.8,275.5"/>
</g>
<path class="st1" d="M119.2,184.8l62.3,53.6h-7.7l-54.6-47.8V184.8z M119.2,179.4l135.3,59h-12.4l-123-53.9V179.4z M32.7,238.4
	l62.4-58.2v6.6l-55.3,51.6H32.7z M278.3,241.7v-78H23.8v78h75.5v-71.8h14.8v71.8H278.3z M278.3,260.2v34.9H23.8v-34.9h75.5v28.7
	h14.8v-28.7H278.3z"/>
<g>
	<path class="st1" d="M263.8,386.4h14.5v-61.9h-14.5V386.4z M239.8,367.1h2.5v1.2c0,5.9-3.9,9.6-9,9.6c-3.4,0-5.5-2.1-5.5-5
		C227.8,368.7,231.6,367.1,239.8,367.1 M256,364.2c0-14.6-6.1-21.5-20.2-21.5c-6.4,0-11.9,0.9-16.8,3l0.3,9.6
		c5-2.3,9.3-3.5,12.6-3.5c6.8,0,10.4,2.6,10.4,7.2v0.6h-5.7c-15.3,0-22.7,4.4-22.7,13.9c0,8.1,5.4,13.5,14.1,13.5
		c6.7,0,11.5-2.1,15-7.1l0.3,6.6H256V364.2z M186.1,353.4c4.7,0,8.4,4.5,8.4,11.9c0,6.7-3.5,10.9-8.7,10.9c-5.5,0-9.1-4.1-9.1-11.4
		C176.7,357.7,180.4,353.4,186.1,353.4 M162.1,324.4v61.9h13v-8.5c3.3,5.9,8.7,9.2,15.4,9.2c11.1,0,18.9-8.9,18.9-22.5
		c0-13.4-7.4-21.8-18.7-21.8c-6,0-10.6,2.3-13.9,7v-25.4H162.1z M108.4,344v24.5c0,12.4,5.7,18.8,16,18.8c6.7,0,12.1-3.1,15.4-8.7
		v7.9H153V344h-14.5v18.2c0,8.7-3,13.1-8.3,13.1c-4.9,0-7.2-3.2-7.2-9.9V344H108.4z M84.8,386.4h14.5v-61.9H84.8V386.4z M39.7,335.9
		h5.4c11.5,0,16.3,8.9,16.7,18.3c0.3,9.2-4.3,19.5-15.5,19.5h-6.6L39.7,335.9z M23.9,324.4v62H42c10.8,0,17.7-1.1,22.9-4
		c9.2-5.1,12.6-15.4,12.6-27.2c0-10.8-3.3-21.1-11.6-26.4c-4.6-2.9-12-4.4-22-4.4H23.9z"/>
</g>
</svg>
