<?xml version="1.0" encoding="utf-8"?>
<!-- Generator: Adobe Illustrator 19.0.0, SVG Export Plug-In . SVG Version: 6.00 Build 0)  -->
<svg version="1.1" id="layer" xmlns="http://www.w3.org/2000/svg" xmlns:xlink="http://www.w3.org/1999/xlink" x="0px" y="0px"
	 viewBox="-153 -46 652 652" style="enable-background:new -153 -46 652 652;" xml:space="preserve">
<style type="text/css">
	.st0{fill:#0072CE;}
</style>
<path class="st0" d="M451.4,253.8c-1.7,0-3.4-0.3-5-1c-1.6-0.7-3-1.6-4.2-2.8c-1.2-1.2-2.2-2.6-2.8-4.2c-0.7-1.6-1-3.3-1-5
	c0-2.4,0.6-4.8,1.9-6.9c1.3-2.1,3-3.7,5.2-4.8c3.8-2,8.7-2,12.7,0.5c2.1,1.3,3.7,3,4.8,5.2c0.9,1.9,1.4,3.9,1.4,5.9
	c0,1.7-0.3,3.4-1,5c-0.7,1.6-1.6,3-2.8,4.2c-1.2,1.2-2.6,2.2-4.2,2.8C454.8,253.5,453.1,253.8,451.4,253.8 M451.5,229.7
	c-1.9,0-3.6,0.4-5.1,1.2c-1.9,1-3.4,2.3-4.4,4.1c-1.1,1.8-1.6,3.7-1.6,5.8c0,1.4,0.3,2.9,0.8,4.2c0.6,1.3,1.4,2.6,2.4,3.6
	c1,1,2.2,1.8,3.6,2.4c2.7,1.1,5.7,1.1,8.4,0c1.3-0.6,2.6-1.4,3.6-2.4c1-1,1.8-2.2,2.4-3.6c0.6-1.4,0.8-2.8,0.8-4.2
	c0-1.8-0.4-3.5-1.2-5c-0.9-1.8-2.3-3.3-4.1-4.4C455.4,230.2,453.5,229.7,451.5,229.7 M445.8,247.6h3.2v-5.9h2.8c0.5,0,1.3,0,1.6,0.8
	c0.2,0.6,0.7,4.3,0.8,5.1h3.5c-0.2-0.2-0.3-0.4-0.4-1.1c-0.1-0.4-0.2-1.1-0.4-2.8c-0.3-1.9-0.4-3.2-2.6-3.4c0.7-0.2,3.1-0.8,3.1-3.6
	c0-1-0.4-2-1.3-2.8c-1.2-1-2.8-1-4.4-1h-5.6V247.6z M448.9,235.2h2.1c1,0,1.6,0,2.1,0.3c0.3,0.2,0.8,0.6,0.8,1.6
	c0,1-0.6,1.5-0.8,1.7c-0.5,0.4-1.2,0.4-1.6,0.4h-2.5V235.2z M402.7,270.6c-9.8,0-14,2.4-14,10v5.4c0,7.6,4.2,10,14,10h5.2
	c14,0,16-1.8,16-8.7v-7.9c0-6.9-2-8.7-16-8.7H402.7z M365.4,276.4c0-19.6,13.3-23.6,24.6-23.6h32.4c11.3,0,24.6,4,24.6,23.6v13.8
	c0,19.6-13.3,23.6-24.6,23.6H390c-11.3,0-24.6-4-24.6-23.6V276.4z M62.1,270.6c-8.4,0-12.3,1.8-12.3,9.9v5.6c0,8.1,3.9,9.9,12.3,9.9
	h11.4c9.9,0,10.6-3.2,10.6-9.3v-6.8c0-6.1-0.7-9.3-10.6-9.3H62.1z M49.8,304.7V333H26.5v-79.2h22.5v7c3.1-4.5,8.5-7.9,19.8-7.9h6.2
	c27.9,0,31.6,10.2,31.6,25.3v10.4c0,15.1-3.7,25.3-31.6,25.3h-4.4C59.2,313.8,54.4,312.3,49.8,304.7 M149.3,267.9
	c-13.6,0-15,1.2-15,6.6h30.1C164.1,269.1,161.5,267.9,149.3,267.9 M111,280.2c0-22.3,11.3-27.3,27.4-27.3h15.1
	c23.2,0,33.3,5,33.3,25.6v10.5h-52.6v2.7c0,5.3,3.5,7,12.6,7h6.7c11.5,0,11.6-3,11.6-5.8v-0.8h21.9v3.2c0,15.3-13.7,18.4-29.3,18.4
	h-16.3c-14.5,0-30.2-2.8-30.2-28.1V280.2z M215.2,229.6H192V248h23.2V229.6z M215.2,253.8H192v59.1h23.2V253.8z M223.5,312.9h23.2
	v-22l22,22h51.5v-22l22,22h29.9l-33.2-31.4l29.7-27.8h-30l-18.5,18.4v-42.6H297v81.8l-31.6-29.9l29.7-27.8h-30l-18.5,18.4v-42.6
	h-23.2V312.9z M-77.9,234.9c0,0,1.2,1,1.8,1.2c0.6,0.2,0.6,0.2,1.2-0.3c0.7-0.5,2.2-2.5,2.2-2.5l2.2-2.5l1.1-1.6l0.5-0.8
	c0,0,0.6-1.3-1-1.2c-1.6,0.1-2.2,0.5-2.2,0.5l-1.4,0.7c0,0-2.9,1.6-4.6,2.9c-1.8,1.3-0.3,2.8-0.3,2.8L-77.9,234.9z M-58.7,230
	l3.4,3.1c0,0,2.1,2.2,3.6,0.6c1.5-1.6,0.3-3.2,0.3-3.2l-2-2.2c0,0-1.6-1.3-4.2-1.5c-2.5-0.2-3,0.1-3.6,0.8c-0.6,0.7,0.1,1,0.7,1.3
	C-60,229.1-58.7,230-58.7,230 M-70.1,238.5c0,0-2.7,0.6-2.6,4.6c0.1,4,3.9,5,4.6,5c0.7,0,3.3-0.6,3.3-3.8c0-3.3-2.5-6.7-5-5.9
	C-72.3,239.2-70.1,238.5-70.1,238.5 M-52.1,237.8c0,0-3.3-0.3-4.2,5.1c0,0,0.2,5.6,6.3,3.6c0,0,1.6-0.4,1.7-3.9
	c0.1-3.5-3.1-4.8-3.1-4.8L-52.1,237.8z M-58.9,250.3c0,0,2.7,2.7,4.3,5.5c1.6,2.8,3,5.3,3.4,7.2c0.4,2.1,0.4,3.1,0.3,3.3
	c0,0.1-0.1,0.3-0.4,0.5c-1,0.7-5.6-0.3-6.8-0.5l-4.4-1.2c0,0-1.6-0.8-2,0.8c-0.4,1.7,0.1,3,0.6,4.4c0.5,1.4,4.6,8,5.4,9.1
	c0.8,1.1,1.2,1.4-0.4,2.2c-1.6,0.8-5.2,2.4-9.1,2.3c-4.4-0.2-6.3-2.3-6.2-5.4c0.1-3.1,1.1-3.5,0.9-4.6c-0.2-1.1-0.5-2.3-2.3-0.3
	c-1.8,2-4.7,5.3-3,11.7c1.7,6.3,9.5,5.9,12.2,5.7c0,0,6.4,0,15.9-5.1c0,0,2.8-1.2,0.5-3.3c-2.3-2.1-4.5-8.1-4.6-8.4
	c-0.1-0.3-1.2-1.7,0.9-1.3c2.2,0.4,9.3-0.9,8.1-8.1c-1.1-7.2-6.6-11.4-7.8-12.5c-1.2-1.1-3.2-3.1-5.2-3.6c-2-0.5-0.8,1.2-0.7,1.4
	C-59,250.2-58.9,250.3-58.9,250.3 M-23.8,336.7c-3,6.7-8.1,10.6-12,12.4c-5.2,2.3-14.8,1.3-17.2,0.9c-2.4-0.4-1-1.3-1-1.3
	c3.2-2.4,5.8-7.3,6.6-12v0c0.2-1.1,0.3-2.3,0.2-3.3c-0.2-5.4-7.8-17.2-21.2-17.1c-13.4,0.1-16.8,12.4-17,15.6c-0.1,1.3,0.3,3,1,4.8
	v0c1.1,2.7,2.9,5.6,5.2,7.2c3.8,2.6,5.9,2.2,4.1,4c-1.8,1.8-5.8,1.7-5.8,1.7c-11.9,0.6-19-5.2-23.4-12.9v0c-0.6-1-1.1-2-1.6-3
	c-4.3-9.1-1.5-15.8-1.2-16.8c0.3-1,0.5-0.9,4.4-0.6c1.2,0.1,2.8-0.3,4.4-1.1c3.3-1.6,6.5-4.7,6.4-8.1c-0.1-2.4-0.9-4.2-1.7-5.3v0
	c-0.9-1.4-1.9-2-1.9-2c-2.1-1-0.3-1.6-0.3-1.6s6.8-2.2,7.1-7.9c0-0.7,0-1.3-0.1-1.9v0c-0.7-4.4-4.8-6.1-8-6.1
	c-3.6,0.1-1.7-1.3-1.7-1.3c3-2.9,3.1-5.9,3.1-5.9c-0.2-1.1-0.5-2.1-0.9-2.9c-1.6-3.5-4.2-4-6-4.5c-2.2-0.6-7.3,0.4-8.9,0.9
	c-1.7,0.5-1.4,0.7-1.4,0.7c-0.8-0.7,1.3-4.3,1.3-4.3c2.3-3.7,0.6-4-0.8-4.6c-1.4-0.6-4-1.4-5.6,1.5c-0.9,1.8-1.6,6.8-1.9,10.4v0
	c-0.2,2.4-0.4,4.1-0.4,4.1s-0.3,4.2,1.8,2.7c2.1-1.4,11-4.4,11.4-4.7c0.4-0.2,2.4-0.5,3.3,0.4c0.9,1-1.7,2.9-1.7,2.9
	s-6.9,6.6-9.8,9.2c-0.7,0.6-1,1.1-1.1,1.4v0c-0.3,1.1,2.1,0.8,2.8,0.9c1,0.2,9.3,0.7,9.3,0.7c7-1.2,7.7-0.4,7.7-0.4
	c1.7,1.3-1.2,2.4-1.2,2.4s-7.7,4-12.2,5c-4.5,1-0.5,2.5,2.9,4.8v0c0,0,0,0,0.1,0c3.4,2.3,5.2,3.1,5.2,3.1c2.9,2.7,1.2,3.4,0.5,3.7
	c-0.7,0.3-5.7,0.4-8.6,0.3c-2.2-0.1-6.8-4.1-9.9-7.1v0c-1.1-1.1-2.1-2-2.7-2.6c-1.5-1.5-3.4-6-4.5-10.8v0c-0.5-2.3-0.8-4.7-0.7-6.9
	c0.1-2.7,1-6,2.1-9.2v0c1.9-5.1,4.4-9.8,5.1-10.8c1-1.3-0.5-2.6-0.5-2.6s-1.3-1.1-2.9-1.9c-1.6-0.8-0.9-1.3-0.8-1.5s1.3-2.3,1.3-2.3
	c0.5-0.8,1.1-1.6,1.8-2.4v0c4.3-5.2,10.6-9.7,12.3-10.8c1.9-1.2,0.9-1.7,0.4-2c-0.5-0.3-4.4-1.8-6.2-2.3c-1.8-0.5-1.9-0.4-1.4-1.4
	c0.5-1,2.4-2.5,2.4-2.5c0.9-0.9,1.9-1.8,2.8-2.5v0c5.9-4.7,11.1-4.9,11.1-4.9c3.3-0.7,1.3-2.2-0.5-3.5c-1.8-1.2-3.8-2.2-3.8-2.2
	c-5.5-1.4-1.9-2.4-1.9-2.4c0.2-0.2,0.5-0.4,0.8-0.5v0c3.8-2.3,12.3-4,15.8-3.8c4.3,0.2,1.8-2.2,1.5-2.9c-0.3-0.6-2.1-2.6-3-3.7
	c-0.9-1.1-0.2-1.1,3.1-0.9c3.3,0.2,9.9,3.3,11.7,4c1.8,0.8,1.6-0.6,1.6-0.6l0.5-1.2c0,0,1.3-2,1.8-4.4v0c0-0.1,0-0.2,0.1-0.3
	c0.5-2.4,0.8-2.2,1.7-1.1c0.3,0.3,0.6,0.8,1,1.4v0c1.1,1.6,2.5,4,3.2,5.3c0.9,1.7,1.9,0.1,2.2-0.2c0.2-0.3,1-1.8,3.7-5.1
	c0.1-0.1,0.2-0.3,0.3-0.4c2.6-3.2,2.9-2.8,2.5,0.4v0c0,0.3-0.1,0.7-0.2,1.1c-0.6,4.2,0.4,4.1,0.4,4.1c3.1-2.4,9.7-3.3,10.3-3.2
	c0.6,0.1,5.3,0.2,6.2,0.4c0.9,0.2,1.8,0.4,0.7,1.2c-1.1,0.8-3.5,4.9-4.8,6.9c-1.3,2.1-0.1,2.5,3.2,2.3c3.1-0.2,10,0.1,13.1,0.6v0
	c0.2,0,0.4,0.1,0.6,0.1c2.7,0.6,1.3,1.3,1.3,1.3s-0.2,0.2-0.9,0.5c-0.7,0.3-0.5,0.8-3.6,3.1c-3.2,2.3,0.7,2.4,0.7,2.4
	c5.1,1.4,9.9,4.1,13.2,6.2v0c2.2,1.4,3.7,2.5,4.4,2.9c1.7,1.1,0.1,1.2,0.1,1.2l-4,0.1c-8.8,0.4-3.1,3.2,1.7,6.7
	c3.3,2.4,7,7,9.6,10.7v0c1.2,1.6,2.1,3.1,2.7,4c2,3,0.1,2.5-2.9,4.2c-3,1.7-0.6,5-0.6,5c1,3,1.7,5.6,2.3,8.4v0
	c0.8,4.4,1,9.1,0.6,15.6c0,0.2,0,0.3,0,0.5v0c-0.5,5.1-2.7,9.9-4.9,13.5v0c-2.3,3.8-4.5,6.2-4.5,6.2c-5.3,7.5-20.3,7.2-25.3,4.9
	c-5-2.4-0.5-3.5,2.5-3.8c3-0.4,9.7-2.5,11.4-3.2c1.8-0.7,1.1-1.1,0.4-1.4c-0.6-0.3-3.7-2-4.8-2.6v0c-0.3-0.1-0.4-0.2-0.4-0.2
	s-5.6-2.2-9.5-5.6c-3.8-3.4,0.5-2.7,4.1-2.2c3.6,0.5,11.1-0.8,12.3-1.1c1.2-0.3,2.6-0.3,3.3-0.8c0.6-0.6-1.1-1.8-2.1-2.3
	c-0.3-0.2-0.9-0.6-1.6-1.1v0c-1.8-1.4-4.5-3.7-5.6-4.7c-1.5-1.3-2.8-4.1-2.9-4.8c-0.2-0.7,0.3-1.7,1.6-2.1c1.3-0.4,3.6,0.9,3.6,0.9
	c4.5,1.1,10.2,4.2,11.4,4.9c1.3,0.6,1.5-0.5,1.5-0.5c1.3-2.1,2.8-7.6,3-8.4c0-0.2,0.1-0.7,0.1-1.4v0c0-2-0.1-5.7-0.8-7.8
	c-0.9-2.9-2.7-2.3-4.4-1.9c-1.7,0.4-2.3,1-2.2,2c0.1,1,0.8,5.1,0.8,7c0,0.2,0,0.5,0,0.7v0c0,1.7-0.1,3.3-1.6,2.3
	c-0.9-0.6-2.7-1.5-5-2.3v0c-2.3-0.8-5-1.5-8-1.7c-2.9-0.2-5,0.5-6.5,1.7v0c-1.6,1.3-2.3,3.3-2.4,5.2c-0.1,3.7,2.4,6.8,4,8.1
	c1.6,1.3-0.3,1.3-0.3,1.3s-2-1.2-6.1-0.6c-2.2,0.3-3.5,1.1-4.4,2.2v0c-0.8,1-1.3,2.2-1.6,3.8c-0.7,3.4,3,7.7,5.3,9.4
	c0.2,0.1,0.3,0.2,0.4,0.3v0c1.5,1.3-1.5,1.2-1.5,1.2c-4,1.5-5.5,3.9-4.4,8.5c0.3,1.4,1.1,2.6,2.1,3.7v0c2.3,2.5,6,4.2,8.9,5.4
	c4.2,1.6,12.3,1,14.5,0.6c2.2-0.4,2.1,1.4,2.1,1.4c0.4,3.6-0.3,7.3-0.3,7.3C-22.2,332.4-22.9,334.6-23.8,336.7L-23.8,336.7z
	 M-105.3,202c0.2,0.4,0.8,0.9,2.1,1.3c4.1,1.4,4.6,2.4,0.5,3.4c-3.8,1-11.4,6.4-13.8,8.7v0c-0.1,0.1-0.2,0.2-0.3,0.3
	c0,0-6.4,6.2-1,6c5.4-0.2,4.5,0-1.6,4.2c-1.2,0.8-2.3,1.8-3.4,2.9v0c-4.8,4.8-8.9,11.5-8.8,12.4c0.1,1.1-1.5,2.9,3.9,1.3
	c5.4-1.5,7-2.4,3,1.3c-1.6,1.5-3.7,3.8-5.6,6.5c-2.7,3.9-5.1,8.6-5.1,13.1c0,0-1.3,2.9,4.4,0.3c0,0,2.3-1.4,2,0.4
	c-0.2,1-2,3.9-3.4,7.7v0c-1.2,3.1-2.1,6.8-2,10.7c0.1,1.8,0.3,3.6,0.6,5.5v0c0.9,4.6,2.6,9.3,5.4,13.5v0c1.5,2.3,3.4,4.5,5.7,6.4
	c7.2,6.2,7.2,6.5,7.5,7.1v0c0,0.1,0.1,0.1,0.1,0.2c0.5,0.7-2.5,3.6,1.1,16.3c0.5,1.8,1.1,3.5,1.8,5v0c3.9,9.1,9.8,13.3,15,15.7
	c0,0,7.9,3.2,14.7,3.2c5.4,0,12.6-2.3,14.7-5.1c2.1-2.8,4.3-7,2.7-8.5c-1.7-1.4-2.5-0.7-5.3-1.3c-1.9-0.4-5-1.8-6.8-3.9v0
	c-0.9-1.1-1.5-2.3-1.4-3.8c0.3-3.9,5.1-9,9.3-9.2c4.8-0.3,11.3,1.5,13.5,4.9c1.6,2.5,2.3,5.4,1.5,8.1v0c-0.4,1.3-1.2,2.5-2.3,3.7
	c-3.6,3.4-8,8.5-7.9,8.6c0.1,0.1-0.9,2.7,3.9,5.1c4.9,2.4,13.5,4.2,18.3,3.9c5.3-0.4,18.5-2.6,23.5-14.3c1-2.3,1.7-4.6,2.3-6.9v0
	c2.5-9.6,2.1-18.7,2.1-19.1c0-0.1,1.1-0.9,2.8-2.4c3-2.6,7.7-7.3,11.1-13.5v0c2.2-3.9,3.8-8.4,4.2-13.5v0c0.1-1.3,0.1-2.6,0.1-3.9
	c-0.3-5.1-0.7-9.1-1.2-12.2v0c-1.1-6.7-2.5-9.2-2.5-9.2s2.1-1.6,4.5-1.8c2.4-0.2,2.5-3.6,0.5-6.6c-0.6-0.9-1.6-2.3-2.7-4v0
	c-2.6-3.7-6-8.4-7.9-9.8c-2.7-2,2.3-0.8,2.6-0.8c0.3,0,7.2,3.7,3.6-1.8c-1.8-2.7-4.2-6.1-7.3-9.2v0c-3.3-3.3-7.3-6.3-12.1-7.7
	c0,0-2.9-1.2,1.7-1.9c4.6-0.6,7.9-0.8,3.1-3.9c0,0-0.1,0-0.1,0v0c-4.8-3.1-11.9-6.4-17.3-6.6c-5.4-0.2,0.4-3.3,0.8-3.5
	c0.3-0.2,3.5-1.5,2.4-3.3v0c-0.3-0.5-0.9-1.1-2.1-1.7c-5.2-2.7-8.1-4.3-18.7-3.7c0,0-1.4,0.2-0.2-2.1c1.2-2.3,3-5.3,3.5-5.8
	c0.5-0.5,1.3-2.6-4.1-1.7c-5.6,0.9-9.8,4.4-10.8,5.2c0,0-3.9,3.1-4.2,3.7c-0.3,0.6-0.4,0.7-2.1-0.5c0,0-5.5-5.8-12.5-7.1
	c-7-1.3-1.5,4.1-1.5,4.1s1.8,3.2,1.7,5.5c-0.2,3-3-0.1-6.7-0.4c-2.1-0.2-12.7-1.6-18.6,2.7C-104.3,200.3-105.8,201.1-105.3,202"/>
</svg>
